<svg width="20" height="20" viewBox="0 0 20 20" fill="none" xmlns="http://www.w3.org/2000/svg">
<path d="M9.35449 3.00781C12.5479 3.16959 15.0869 5.81037 15.0869 9.04395L15.0791 9.35449C15.0053 10.8104 14.4147 12.1285 13.4893 13.1338L17.6914 16.9844L17.3535 17.3535L17.0156 17.7217L12.752 13.8135C11.7281 14.6105 10.442 15.0869 9.04395 15.0869L8.73242 15.0791C5.64229 14.9222 3.16436 12.4447 3.00781 9.35449L3 9.04395C3 5.70619 5.70622 3.00011 9.04395 3L9.35449 3.00781ZM9.04395 4C6.2585 4.00011 4 6.25847 4 9.04395C4.00015 11.8293 6.25859 14.0868 9.04395 14.0869C11.8293 14.0868 14.0868 11.8293 14.0869 9.04395C14.0869 6.2585 11.8294 4.00015 9.04395 4Z" fill="black"/>
<path d="M9.35449 3.00781L9.3798 2.50829L9.36707 2.50797L9.35449 3.00781ZM15.0869 9.04395L15.5869 9.05652V9.04395H15.0869ZM15.0791 9.35449L15.5786 9.3798L15.5789 9.36707L15.0791 9.35449ZM13.4893 13.1338L13.1214 12.7952L12.782 13.1639L13.1515 13.5024L13.4893 13.1338ZM17.6914 16.9844L18.0602 17.322L18.3976 16.9534L18.0292 16.6157L17.6914 16.9844ZM17.3535 17.3535L17.7219 17.6916L17.7223 17.6911L17.3535 17.3535ZM17.0156 17.7217L16.6778 18.0903L17.0461 18.4279L17.384 18.0598L17.0156 17.7217ZM12.752 13.8135L13.0898 13.4449L12.7783 13.1593L12.4448 13.4189L12.752 13.8135ZM9.04395 15.0869L9.03141 15.5869L9.04397 15.5869L9.04395 15.0869ZM8.73242 15.0791L8.70706 15.5786L8.71989 15.5789L8.73242 15.0791ZM3.00781 9.35449L2.50781 9.36707L2.50845 9.37979L3.00781 9.35449ZM3 9.04395H2.49984L2.50016 9.05652L3 9.04395ZM9.04395 3L9.05652 2.5L9.04393 2.5L9.04395 3ZM9.04395 4L9.04397 3.5H9.04393L9.04395 4ZM4 9.04395H3.5V9.04397L4 9.04395ZM9.04395 14.0869L9.04393 14.5869H9.04397L9.04395 14.0869ZM14.0869 9.04395L14.5869 9.04397V9.04395H14.0869ZM9.35449 3.00781L9.32919 3.50717C12.2579 3.65554 14.5869 6.07796 14.5869 9.04395H15.0869H15.5869C15.5869 5.54278 12.8379 2.68364 9.37979 2.50845L9.35449 3.00781ZM15.0869 9.04395L14.5871 9.03137L14.5793 9.34192L15.0791 9.35449L15.5789 9.36707L15.5868 9.05652L15.0869 9.04395ZM15.0791 9.35449L14.5797 9.32919C14.5121 10.6637 13.9711 11.8721 13.1214 12.7952L13.4893 13.1338L13.8571 13.4724C14.8583 12.3849 15.4985 10.9571 15.5785 9.37979L15.0791 9.35449ZM13.4893 13.1338L13.1515 13.5024L17.3536 17.353L17.6914 16.9844L18.0292 16.6157L13.8271 12.7652L13.4893 13.1338ZM17.6914 16.9844L17.3226 16.6468L16.9847 17.0159L17.3535 17.3535L17.7223 17.6911L18.0602 17.322L17.6914 16.9844ZM17.3535 17.3535L16.9851 17.0154L16.6473 17.3836L17.0156 17.7217L17.384 18.0598L17.7219 17.6916L17.3535 17.3535ZM17.0156 17.7217L17.3535 17.3531L13.0898 13.4449L12.752 13.8135L12.4141 14.1821L16.6778 18.0903L17.0156 17.7217ZM12.752 13.8135L12.4448 13.4189C11.5053 14.1504 10.3264 14.5869 9.04392 14.5869L9.04395 15.0869L9.04397 15.5869C10.5577 15.5868 11.951 15.0707 13.0591 14.208L12.752 13.8135ZM9.04395 15.0869L9.05648 14.5871L8.74496 14.5793L8.73242 15.0791L8.71989 15.5789L9.03141 15.5868L9.04395 15.0869ZM8.73242 15.0791L8.75777 14.5797C5.9238 14.4359 3.65074 12.1631 3.50717 9.32919L3.00781 9.35449L2.50845 9.37979C2.67799 12.7263 5.36079 15.4086 8.70707 15.5785L8.73242 15.0791ZM3.00781 9.35449L3.50765 9.34192L3.49984 9.03137L3 9.04395L2.50016 9.05652L2.50797 9.36707L3.00781 9.35449ZM3 9.04395H3.5C3.5 5.98235 5.98235 3.5001 9.04396 3.5L9.04395 3L9.04393 2.5C5.43009 2.50012 2.5 5.43003 2.5 9.04395H3ZM9.04395 3L9.03137 3.49984L9.34192 3.50765L9.35449 3.00781L9.36707 2.50797L9.05652 2.50016L9.04395 3ZM9.04395 4L9.04393 3.5C5.98237 3.50012 3.5 5.98231 3.5 9.04395H4H4.5C4.5 6.53464 6.53463 4.5001 9.04397 4.5L9.04395 4ZM4 9.04395L3.5 9.04397C3.50017 12.1056 5.98257 14.5868 9.04393 14.5869L9.04395 14.0869L9.04397 13.5869C6.53462 13.5868 4.50014 11.553 4.5 9.04392L4 9.04395ZM9.04395 14.0869L9.04397 14.5869C12.1054 14.5867 14.5867 12.1054 14.5869 9.04397L14.0869 9.04395L13.5869 9.04392C13.5868 11.5531 11.5531 13.5868 9.04392 13.5869L9.04395 14.0869ZM14.0869 9.04395H14.5869C14.5869 5.98246 12.1056 3.50017 9.04397 3.5L9.04395 4L9.04392 4.5C11.5531 4.50014 13.5869 6.53454 13.5869 9.04395H14.0869Z" fill="black"/>
</svg>
