<svg width="20" height="20" viewBox="0 0 20 20" fill="none" xmlns="http://www.w3.org/2000/svg">
<path d="M12.7114 15C13.6063 13.8157 14.5369 12.7555 15.5034 11.8195C16.4519 10.8835 17.2841 10.3009 18 10.0716V9.89971C17.2841 9.67049 16.443 9.09742 15.4765 8.18052C14.5101 7.24451 13.5884 6.18434 12.7114 5L11.9329 5.74499C12.5056 6.66189 13.0157 7.41643 13.4631 8.0086C13.8926 8.58166 14.4295 9.10697 15.0738 9.58453C12.8367 9.58453 10.7606 9.50812 8.84564 9.3553C6.91275 9.18338 4.63087 8.8873 2 8.46705L2.72483 9.98567L2 11.533C4.68456 11.1127 6.98434 10.8166 8.89933 10.6447C10.8143 10.4728 12.8725 10.3868 15.0738 10.3868C14.4474 10.9408 13.9105 11.5138 13.4631 12.106C12.9978 12.6982 12.4877 13.4145 11.9329 14.255L12.7114 15Z" fill="black"/>
</svg>
