<svg width="20" height="20" viewBox="0 0 20 20" fill="none" xmlns="http://www.w3.org/2000/svg">
<path d="M7.28859 15C6.39374 13.8157 5.46309 12.7555 4.49664 11.8195C3.5481 10.8835 2.71588 10.3009 2 10.0716V9.89971C2.71588 9.67049 3.55705 9.09742 4.52349 8.18052C5.48993 7.24451 6.41163 6.18434 7.28859 5L8.06711 5.74499C7.49441 6.66189 6.98434 7.41643 6.53691 8.0086C6.10738 8.58166 5.57047 9.10697 4.92617 9.58453C7.16331 9.58453 9.23937 9.50812 11.1544 9.3553C13.0872 9.18338 15.3691 8.8873 18 8.46705L17.2752 9.98567L18 11.533C15.3154 11.1127 13.0157 10.8166 11.1007 10.6447C9.18568 10.4728 7.12752 10.3868 4.92617 10.3868C5.55257 10.9408 6.08949 11.5138 6.53691 12.106C7.00224 12.6982 7.5123 13.4145 8.06711 14.255L7.28859 15Z" fill="black"/>
</svg>
