<svg width="131" height="52" viewBox="0 0 131 52" fill="none" xmlns="http://www.w3.org/2000/svg">
<path d="M0 44.7428H5.67968L6.69141 38.7296H11.0386V44.7428H18.4327V0H8.35916L0 44.7428ZM11.0357 14.7885V34.0192H7.48155L10.715 14.7885H11.0357Z" fill="black"/>
<path d="M100.298 30.7677C100.298 35.425 99.601 39.5429 97.5105 39.5429C95.5803 39.5429 95.5803 36.0764 95.5803 31.9055V10.184H88.1862V32.8811C88.1862 39.705 89.5799 45.341 94.9913 45.341C97.4026 45.341 99.7059 44.2032 100.884 40.9548H101.42L101.581 44.7456H107.689V10.184H100.295V30.7677H100.298Z" fill="black"/>
<path d="M115.516 0L112.892 3.41341C115.545 5.46205 117.615 7.43404 119.05 9.48858C111.542 9.88946 109.836 17.7126 109.836 26.65C109.836 38.4584 112.889 45.0671 120.07 45.0671C128.322 45.0671 131.001 36.7782 131.001 26.703C131.001 13.1083 126.071 4.7664 115.516 0ZM120.446 39.5431C118.572 39.5431 117.714 34.2343 117.714 26.706C117.714 19.1776 118.572 14.3021 120.446 14.3021C122.321 14.3021 123.126 18.9595 123.126 26.706C123.126 34.4525 122.321 39.5431 120.446 39.5431Z" fill="black"/>
<path d="M33.3297 9.31757C31.1867 9.31757 28.8833 10.2932 27.8103 13.7037H27.2739L26.8977 10.1842H20.4688V52H28.2389V45.3913C28.9883 45.6094 29.793 45.6624 30.4344 45.6624C39.0064 45.6624 40.4526 35.3161 40.4526 25.4591C40.4526 17.2262 39.435 9.31757 33.3268 9.31757H33.3297ZM29.2565 40.0825C28.8279 40.0825 28.2914 39.9734 27.8628 39.8113V19.9322C29.0961 18.308 29.7376 17.7656 30.5423 17.7656C32.2042 17.7656 32.5774 20.2564 32.5774 29.0876C32.5774 33.801 32.4696 40.0825 29.2565 40.0825Z" fill="black"/>
<path d="M92.9598 0H75.6525V44.7428H83.1545V5.41783H91.9393L92.9598 0Z" fill="black"/>
<path d="M66.8123 9.31758C64.1328 9.31758 62.1502 11.0508 60.8644 13.7597L60.3279 13.7067C58.8264 10.0781 56.8466 9.32053 55.3976 9.32053C53.3624 9.32053 50.7354 10.8386 49.61 13.7067H49.0735L48.5371 10.1871H42.4288V44.7457H49.8229V19.9381C50.4118 18.5851 51.5897 17.7715 52.6102 17.7715C53.7357 17.7715 54.0039 18.6912 54.0039 20.6426V44.7457H61.398V19.9381C61.7187 18.6381 62.8441 17.7715 63.8617 17.7715C64.8793 17.7715 65.5761 18.6381 65.5761 20.6426V44.7457H72.9702V18.4171C72.9702 13.5416 71.04 9.31758 66.8094 9.31758H66.8123Z" fill="black"/>
</svg>
