<svg width="20" height="20" viewBox="0 0 20 20" fill="none" xmlns="http://www.w3.org/2000/svg">
<path d="M17.6035 7.89648L16.8965 8.60352L15.7842 7.49121L10.3398 14.0693L10.3105 14.1035L12.1035 15.8965L11.3965 16.6035L7.75 12.957L3.10352 17.6035L2.39648 16.8965L7.04297 12.25L3.39648 8.60352L4.10352 7.89648L5.58203 9.375L12.4883 4.19531L11.3965 3.10352L12.1035 2.39648L17.6035 7.89648ZM6.29688 10.0898L9.59961 13.3926L15.0742 6.78125L13.2031 4.91016L6.29688 10.0898Z" fill="black"/>
<path d="M17.6035 7.89648L17.9571 8.25004L18.3106 7.89648L17.9571 7.54293L17.6035 7.89648ZM16.8965 8.60352L16.5429 8.95707L16.8965 9.31062L17.25 8.95707L16.8965 8.60352ZM15.7842 7.49121L16.1377 7.13766L15.7493 6.74919L15.399 7.17241L15.7842 7.49121ZM10.3398 14.0693L10.7195 14.3948L10.725 14.3881L10.3398 14.0693ZM10.3105 14.1035L9.93092 13.7781L9.62959 14.1297L9.95699 14.4571L10.3105 14.1035ZM12.1035 15.8965L12.4571 16.25L12.8106 15.8965L12.4571 15.5429L12.1035 15.8965ZM11.3965 16.6035L11.0429 16.9571L11.3965 17.3106L11.75 16.9571L11.3965 16.6035ZM7.75 12.957L8.10355 12.6035L7.75 12.2499L7.39645 12.6035L7.75 12.957ZM3.10352 17.6035L2.74996 17.9571L3.10352 18.3106L3.45707 17.9571L3.10352 17.6035ZM2.39648 16.8965L2.04293 16.5429L1.68938 16.8965L2.04293 17.25L2.39648 16.8965ZM7.04297 12.25L7.39652 12.6036L7.75008 12.25L7.39652 11.8964L7.04297 12.25ZM3.39648 8.60352L3.04293 8.24996L2.68938 8.60352L3.04293 8.95707L3.39648 8.60352ZM4.10352 7.89648L4.45707 7.54293L4.10352 7.18938L3.74996 7.54293L4.10352 7.89648ZM5.58203 9.375L5.22848 9.72855L5.53511 10.0352L5.88203 9.775L5.58203 9.375ZM12.4883 4.19531L12.7883 4.59531L13.2495 4.24941L12.8418 3.84176L12.4883 4.19531ZM11.3965 3.10352L11.0429 2.74996L10.6894 3.10352L11.0429 3.45707L11.3965 3.10352ZM12.1035 2.39648L12.4571 2.04293L12.1035 1.68938L11.75 2.04293L12.1035 2.39648ZM6.29688 10.0898L5.99688 9.68984L5.53567 10.0357L5.94332 10.4434L6.29688 10.0898ZM9.59961 13.3926L9.24606 13.7461L9.63442 14.1345L9.98472 13.7115L9.59961 13.3926ZM15.0742 6.78125L15.4593 7.10014L15.7496 6.74956L15.4278 6.4277L15.0742 6.78125ZM13.2031 4.91016L13.5567 4.5566L13.25 4.24997L12.9031 4.51016L13.2031 4.91016ZM17.6035 7.89648L17.25 7.54293L16.5429 8.24996L16.8965 8.60352L17.25 8.95707L17.9571 8.25004L17.6035 7.89648ZM16.8965 8.60352L17.25 8.24996L16.1377 7.13766L15.7842 7.49121L15.4306 7.84476L16.5429 8.95707L16.8965 8.60352ZM15.7842 7.49121L15.399 7.17241L9.95466 13.7505L10.3398 14.0693L10.725 14.3881L16.1694 7.81001L15.7842 7.49121ZM10.3398 14.0693L9.96022 13.7439L9.93092 13.7781L10.3105 14.1035L10.6902 14.4289L10.7195 14.3947L10.3398 14.0693ZM10.3105 14.1035L9.95699 14.4571L11.75 16.25L12.1035 15.8965L12.4571 15.5429L10.6641 13.75L10.3105 14.1035ZM12.1035 15.8965L11.75 15.5429L11.0429 16.25L11.3965 16.6035L11.75 16.9571L12.4571 16.25L12.1035 15.8965ZM11.3965 16.6035L11.75 16.25L8.10355 12.6035L7.75 12.957L7.39645 13.3106L11.0429 16.9571L11.3965 16.6035ZM7.75 12.957L7.39645 12.6035L2.74996 17.25L3.10352 17.6035L3.45707 17.9571L8.10355 13.3106L7.75 12.957ZM3.10352 17.6035L3.45707 17.25L2.75004 16.5429L2.39648 16.8965L2.04293 17.25L2.74996 17.9571L3.10352 17.6035ZM2.39648 16.8965L2.75004 17.25L7.39652 12.6036L7.04297 12.25L6.68942 11.8964L2.04293 16.5429L2.39648 16.8965ZM7.04297 12.25L7.39652 11.8964L3.75004 8.24996L3.39648 8.60352L3.04293 8.95707L6.68942 12.6036L7.04297 12.25ZM3.39648 8.60352L3.75004 8.95707L4.45707 8.25004L4.10352 7.89648L3.74996 7.54293L3.04293 8.24996L3.39648 8.60352ZM4.10352 7.89648L3.74996 8.25004L5.22848 9.72855L5.58203 9.375L5.93558 9.02145L4.45707 7.54293L4.10352 7.89648ZM5.58203 9.375L5.88203 9.775L12.7883 4.59531L12.4883 4.19531L12.1883 3.79531L5.28203 8.975L5.58203 9.375ZM12.4883 4.19531L12.8418 3.84176L11.75 2.74996L11.3965 3.10352L11.0429 3.45707L12.1347 4.54887L12.4883 4.19531ZM11.3965 3.10352L11.75 3.45707L12.4571 2.75004L12.1035 2.39648L11.75 2.04293L11.0429 2.74996L11.3965 3.10352ZM12.1035 2.39648L11.75 2.75004L17.25 8.25004L17.6035 7.89648L17.9571 7.54293L12.4571 2.04293L12.1035 2.39648ZM6.29688 10.0898L5.94332 10.4434L9.24606 13.7461L9.59961 13.3926L9.95316 13.039L6.65043 9.73629L6.29688 10.0898ZM9.59961 13.3926L9.98472 13.7115L15.4593 7.10014L15.0742 6.78125L14.6891 6.46236L9.2145 13.0737L9.59961 13.3926ZM15.0742 6.78125L15.4278 6.4277L13.5567 4.5566L13.2031 4.91016L12.8496 5.26371L14.7207 7.1348L15.0742 6.78125ZM13.2031 4.91016L12.9031 4.51016L5.99688 9.68984L6.29688 10.0898L6.59688 10.4898L13.5031 5.31016L13.2031 4.91016Z" fill="black"/>
</svg>
