<svg width="20" height="20" viewBox="0 0 20 20" fill="none" xmlns="http://www.w3.org/2000/svg">
<path d="M16.2148 4.29785C15.4028 5.67566 15.3248 8.78067 15.5371 11.3047L14.4766 11.3369C14.248 9.88007 14.0377 8.34393 14.2695 6.51855C12.7504 7.93872 11.8293 9.2016 10.9863 11.0723C9.07135 11.7796 7.76256 12.6012 6.24316 14.0215C8.10853 13.8863 9.62361 14.2022 11.0742 14.5166L10.9785 15.5654C8.43859 15.1864 5.32859 15.0937 3.89453 15.8154L3.78516 15.7002C4.59721 14.3224 4.72288 11.235 4.47852 8.70996L5.53906 8.67773C5.7842 10.1192 6.07216 11.7379 5.73047 13.4805C7.24989 12.0601 8.18607 10.8127 8.99609 8.97266C10.9276 8.24991 12.2209 7.41231 13.7568 5.97656C11.9682 6.22555 10.3756 5.82795 8.94141 5.49805L9.03711 4.44922C11.5768 4.82825 14.6712 4.90508 16.1055 4.18359L16.2148 4.29785Z" fill="black"/>
</svg>
